<svg xmlns="http://www.w3.org/2000/svg" viewBox="0 0 320 360" height="360" width="320">
  <g>
    <path xmlns="http://www.w3.org/2000/svg" d="M20.961 227.22l3.726 4.658-1.863-6.056c-0.466-2.795-3.726 0.466-1.863 1.398M25.153 224.425c1.397 2.329 2.795 4.658 2.795 6.987 0 3.261 2.795 4.658 5.123 5.589-3.261-3.726-5.124-13.974-7.918-12.576M204.017 26.929c7.918 0 15.371-0.932 23.756 0.931 20.495 5.124 37.729 15.371 49.374 29.811l32.606 52.169c1.397 13.042 4.192 27.482 3.726 43.319 3.261 0 2.795-4.658 6.521-5.59-3.726 9.316-5.59 20.961-6.521 34.469-2.329-7.453 0-18.632 0.466-24.687-3.261 5.124-5.124 1.397-5.124-0.932 0.466-3.726-1.397-3.261-2.795-4.658-5.124-4.658-8.384-9.782-12.11-17.7 2.329-6.055 2.795-14.905-4.658-19.563-2.329-1.397-5.124-3.726-6.521-7.453-1.863-5.124-5.124-11.179-4.193-19.097 0.466-2.329-6.987 5.124-11.179 1.863-18.166-12.576-36.332-27.016-58.224-39.127-11.645 0-20.029-4.192-24.221-9.316-3.726-4.658-0.932-10.713 4.658-11.179 3.261 0 6.987-0.932 9.782 0.932 0.466-1.863 2.329-4.192 4.657-4.192M157.904 16.215l0.932 0.466c4.658 0.932 6.987 7.453 12.11 5.124 0 3.261 0.466 6.521-0.466 8.85-1.397 3.726-5.59 3.726-8.85 3.726-31.208-1.863-49.374 11.179-68.471 22.358-5.124 3.261-10.713 5.59-14.906 9.782-20.029 18.632-41.921 35.866-47.045 70.335l-4.192 38.195c-0.466 4.192-5.124 8.384-4.192 13.508l3.26 22.824c-3.261-3.261-5.124 0.932-4.192 2.795 0.466 1.397 2.329 6.055 5.124 1.863 3.726 6.987 7.453 20.495 12.576 26.55 15.837 18.632 36.332 35.4 53.101 52.169 4.192-0.932 7.453-0.932 8.384-3.727 1.397 2.795-1.397 5.59-3.726 6.056 7.453 4.658 15.837 8.85 27.016 9.781 14.44 0.932 27.948 3.261 40.524 6.522 6.521-1.863 13.042-2.795 20.029-3.261 2.329 0 3.726-3.726 6.521-4.658l0.466-4.658c2.795 4.192 2.329-1.397 0.466-4.192 3.261 2.795 4.192 5.124 5.589 6.987 0-1.397 3.726-6.521 3.727-0.466l0.931-6.055c1.397-0.932 1.863 5.124 3.261 0.931 1.397-4.192 4.192-0.932 6.987-2.329-0.932 1.863-0.466 5.59 2.794 3.261l3.727-3.261c2.329 5.59 6.055 3.261 7.918 2.329 20.495-13.042 40.99-28.413 60.553-43.784l-0.466 6.055 2.329-7.453c2.329 2.329 4.192 0.466 5.124-0.931 2.795-4.658 6.521-9.316 12.577-13.508-7.453 20.029-16.303 35.866-27.482 48.908l-4.658 5.59c0 3.261-0.932 7.453-4.658 7.918-1.863 0.466-5.59-0.932-8.384 1.863-1.397 1.863 3.261 5.59-0.466 2.795-3.261-2.329-6.521 0-10.248 0.932-2.795 0.932 1.863 3.726 2.795 5.589 0.932 1.863 1.863 3.726 1.398 6.056l-5.124-5.59c-6.055 3.261-9.782 9.316-14.906 13.974-2.329 1.863-1.397 5.124-1.397 7.918-3.261 0-6.987-0.932-8.85 0.932-1.397 1.863-0.932 4.658-0.932 7.453-4.658-0.466-5.124-7.453-9.315-6.056-4.192 0.932-8.85 1.397-12.577 3.727 2.795 5.59-4.658 2.329-3.726 3.26-6.987-4.192-13.042-7.453-20.495-4.658-15.837-5.124-35.4-2.795-49.84-0.931 0-2.329 0.466-4.658-0.466-5.124-0.932 2.329-3.726 1.397-3.26 1.397-8.85-6.055-17.7-9.782-27.016-14.905-8.384 0.932-16.303-3.261-18.632-5.59-6.521-6.055-13.974-2.795-20.029-4.192-13.042-3.261-17.7-16.769-19.098-26.084-0.932-4.658-4.658-6.521-6.055-6.056-6.055-19.563-15.371-37.263-22.824-55.429-1.863-4.658-1.397-9.316-1.397-14.44 2.329 0.932 4.658 0.466 4.192-2.794-2.329-15.371-7.918-27.016-13.974-38.195 3.261-15.837 3.726-34.469 11.179-48.443 6.521-12.576 18.632-19.098 27.016-29.811 2.795-3.726 2.795-8.85 5.59-12.11 9.316-9.316 18.632-19.098 28.879-27.482 4.658-3.726 10.247 0 17.234-1.397 2.329-8.384 11.645-15.837 20.495-13.508 3.726 0.932 11.179-8.85 13.508-9.782 3.726-1.397 1.863 3.726 1.863 6.987 8.85-6.987 20.961-10.713 32.14-14.906" fill="#804dee" fill-rule="nonzero" stroke="none" stroke-width="1" stroke-linecap="butt" stroke-linejoin="miter" stroke-miterlimit="10" stroke-dasharray="" stroke-dashoffset="0" font-family="none" font-weight="none" font-size="none" text-anchor="none" style="mix-blend-mode: normal" data-fill-palette-color="tertiary">
    </path>
  </g>
  <g transform="matrix(1,0,0,1,96.2135922330097,90)">
    <svg viewBox="0 0 127.57281553398057 180" height="180" width="127.57281553398057">
      <g>
        <svg viewBox="0 0 127.57281553398057 180" height="180" width="127.57281553398057">
          <g>
            <svg viewBox="0 0 127.57281553398057 180" height="180" width="127.57281553398057">
              <g>
                <svg viewBox="0 0 127.57281553398057 180" height="180" width="127.57281553398057">
                  <g>
                    <svg viewBox="0 0 127.57281553398057 180" height="180" width="127.57281553398057">
                      <g>
                        <svg viewBox="0 0 127.57281553398057 180" height="180" width="127.57281553398057">
                          <g transform="matrix(1,0,0,1,0,0)">
                            <svg width="127.57281553398057" viewBox="0.8500000238418579 -35.29999923706055 25.549999237060547 36.04999923706055" height="180" data-palette-color="#804dee">
                              <path d="M14-35.3Q17.65-35.3 20.35-34.25 23.05-33.2 25.4-31.05L25.4-31.05 22.15-27.3Q20.3-28.85 18.43-29.55 16.55-30.25 14.4-30.25L14.4-30.25Q12-30.25 10.53-29.18 9.05-28.1 9.05-26.15L9.05-26.15Q9.05-24.85 9.63-24 10.2-23.15 11.7-22.4 13.2-21.65 16.15-20.75L16.15-20.75Q21.25-19.15 23.83-16.78 26.4-14.4 26.4-9.85L26.4-9.85Q26.4-6.75 24.83-4.35 23.25-1.95 20.3-0.6 17.35 0.75 13.3 0.75L13.3 0.75Q9.35 0.75 6.23-0.53 3.1-1.8 0.85-4L0.85-4 4.25-7.8Q6.25-6.1 8.4-5.23 10.55-4.35 13.15-4.35L13.15-4.35Q16-4.35 17.75-5.7 19.5-7.05 19.5-9.5L19.5-9.5Q19.5-11 18.9-11.98 18.3-12.95 16.85-13.73 15.4-14.5 12.65-15.35L12.65-15.35Q7.15-17.05 4.7-19.45 2.25-21.85 2.25-25.75L2.25-25.75Q2.25-28.6 3.75-30.75 5.25-32.9 7.93-34.1 10.6-35.3 14-35.3L14-35.3Z" opacity="1" transform="matrix(1,0,0,1,0,0)" fill="#804dee" class="undefined-text-0" data-fill-palette-color="primary" id="text-0"></path>
                            </svg>
                          </g>
                        </svg>
                      </g>
                    </svg>
                  </g>
                </svg>
              </g>
              <g></g>
            </svg>
          </g>
        </svg>
      </g>
    </svg>
  </g>
</svg>