<svg xmlns="http://www.w3.org/2000/svg" xmlns:xlink="http://www.w3.org/1999/xlink" viewBox="0,0,255.99609,255.99609" width="24px" height="24px"><g fill="#ffffff" fill-rule="nonzero" stroke="none" stroke-width="1" stroke-linecap="butt" stroke-linejoin="miter" stroke-miterlimit="10" stroke-dasharray="" stroke-dashoffset="0" font-family="none" font-weight="none" font-size="none" text-anchor="none" style="mix-blend-mode: normal"><g transform="scale(8.53333,8.53333)"><path d="M9,25h-5v-15h5zM6.501,8c-1.383,0 -2.501,-1.121 -2.501,-2.501c0,-1.38 1.12,-2.499 2.501,-2.499c1.378,0 2.499,1.121 2.499,2.499c0,1.38 -1.121,2.501 -2.499,2.501zM27,25h-4.807v-7.3c0,-1.741 -0.033,-3.98 -2.499,-3.98c-2.503,0 -2.888,1.896 -2.888,3.854v7.426h-4.806v-15.011h4.614v2.051h0.065c0.642,-1.18 2.211,-2.424 4.551,-2.424c4.87,0 5.77,3.109 5.77,7.151c0,0 0,8.233 0,8.233z"></path></g></g></svg>